<?xml version="1.0" standalone="no"?><!DOCTYPE svg PUBLIC "-//W3C//DTD SVG 1.1//EN" "http://www.w3.org/Graphics/SVG/1.1/DTD/svg11.dtd"><svg class="icon" width="200px" height="200.00px" viewBox="0 0 1024 1024" version="1.1" xmlns="http://www.w3.org/2000/svg"><path fill="#bfbfbf" d="M737.2 69.1H64.8c-12.3 0-22.3 10-22.3 22.3V934c0 12.3 10.4 16.3 22.8 16.3l19.5 7.9H530c-101.2-58-169.4-168.8-169.4-293.7 0-185.8 150.8-336.4 336.9-336.4 21.2 0 41.9 2.1 62.1 5.8V117.3l-10.2-23.7c-0.1-12.2 0.1-24.5-12.2-24.5zM330.1 745.4c0 7.2-5.6 12.3-12.3 12.3H191.2c-7.3 0-12.3-5.6-12.3-12.3v-25.6c-0.6-6.1 5-12.3 12.3-12.3h126.7c7.3 0 12.3 5.6 12.3 12.3v25.6z m14.6-241.2c0 6.7-4.1 12.3-9 12.3H187.9c-5.3 0-9-5.6-9-12.3v-25.6c0-7.2 4.1-12.3 9-12.3h147.9c5.3 0 9 5.6 9 12.3v25.6z m289-232.9c0 7.2-5.6 12.3-12.3 12.3H190.6c-6.7 0-12.3-5-12.3-12.3v-25.6c0-7.2 5.6-12.3 12.3-12.3h430.8c7.3 0 12.3 5.6 12.3 12.3v25.6z m0 0"  /><path fill="#bfbfbf" d="M707.6 376.6c-160.5 0-290.9 129.8-290.9 290.3s130.4 290.8 290.9 290.8c160.5 0 290.9-130.4 290.9-290.8S868.1 376.6 707.6 376.6z m16.2 382.2l-0.6 0.6c-4.5 4.5-8.9 6.7-13.9 6.7s-9.5-2.2-13.9-6.7c-13.4-15.6-29-30.6-46.3-45.1v109.2c0 5-1.7 16.2-18.9 17.8l0.6-1.1h-0.6c-16.7-1.7-18.9-12.3-18.9-17.8v-122c-11.7 10-23.4 19.5-36.2 26.7-15.6 9.5-24 3.3-27.9-1.1l-0.6-0.6c-6.1-10-4.5-19.5 5-27.9 54.6-39 88.1-76.3 98.6-110.3v-0.6c0.6-0.6 0.6-1.1 0.6-1.7h-79.1c-11.1-1.1-17.3-8.4-17.3-19.5 1.1-12.8 8.4-19.5 19.5-19.5h31.8c-5-10-8.9-17.8-11.7-22.3-5-10-2.8-18.9 5.6-25.6l1.1-0.6c10.6-4.5 20.1-2.8 27.3 5.6l0.6 0.6c6.7 10.6 12.3 21.7 15.6 33.4 1.1 2.8 1.7 6.1 1.7 8.9h20.6c12.3 1.1 20.6 5 24.5 12.3 5.6 8.9 5 20.6-1.7 37.3-12.8 28.4-26.2 50.7-40.1 66.9V673c1.1 0 2.8-0.6 4.5-0.6-2.2-8.4 0-15.6 7.8-20.6 6.1-4.5 13.9-11.1 22.9-20.1 7.2-6.1 10-8.4 11.1-9.5 7.8-7.8 16.7-7.8 25.6-0.6l1.1 1.1c6.1 8.4 5.6 17.8-1.7 26.2-13.4 15.6-26.8 26.8-39 33.4-1.7 1.1-3.9 1.7-5.6 2.2 12.8 10.6 28.4 26.2 46.3 46.2 9.4 12.5 6 22 1.6 28.1z m159.4-52.4l-1.1 1.1c-10.6 6.1-21.2 3.3-30.7-6.7-18.4-22.8-37.3-44-56.8-61.8v182.2c-1.7 17.8-12.8 20.6-19.5 20.6h-0.6c-12.3-1.1-18.9-8.9-18.9-22.3v-307c0-6.1 2.2-16.2 18.9-17.8h1.1c17.3 1.7 18.9 13.4 18.9 17.8v74.7c34.6 27.3 64.6 57.4 89.2 88 11.2 15.6 4.5 26.2-0.5 31.2z m0 0"  /><path fill="#bfbfbf" d="M379.9 907H101.8c-13.9 0-25.6-11.7-25.6-25.6V128.7c0-13.9 11.7-25.6 25.6-25.6h581.3c13.9 0 25.6 11.7 25.6 25.6v70.8c0 13.9 11.7 25.6 25.6 25.6 13.9 0 25.1-11.1 25.1-25.6v-95.8c0-27.9-22.9-50.7-50.7-50.7H76.2c-27.9 0-50.7 22.8-50.7 50.7v804c0 27.9 22.8 50.7 50.7 50.7h303.7c13.9 0 25.6-11.7 25.6-25.6 0.1-14.1-11.6-25.8-25.6-25.8z m0 0"  /></svg>