<?xml version="1.0" standalone="no"?><!DOCTYPE svg PUBLIC "-//W3C//DTD SVG 1.1//EN" "http://www.w3.org/Graphics/SVG/1.1/DTD/svg11.dtd"><svg class="icon" width="200px" height="200.00px" viewBox="0 0 1024 1024" version="1.1" xmlns="http://www.w3.org/2000/svg"><path fill="#333333" d="M746.666667 277.333333h-42.666667V85.333333c0-36.266667-27.733333-64-64-64s-64 27.733333-64 64v192h-42.666667l106.666667 128 106.666667-128z m-128-192c0-12.8 8.533333-21.333333 21.333333-21.333333s21.333333 8.533333 21.333333 21.333333v228.266667l-21.333333 25.6-21.333333-25.6V85.333333z m384 277.333334h-170.666667c-12.8 0-21.333333 8.533333-21.333333 21.333333s8.533333 21.333333 21.333333 21.333333h57.6L725.333333 932.266667c-6.4 17.066667-21.333333 29.866667-38.4 29.866666H334.933333c-17.066667 0-32-10.666667-38.4-29.866666L134.4 405.333333H448c12.8 0 21.333333-8.533333 21.333333-21.333333s-8.533333-21.333333-21.333333-21.333333H21.333333c-12.8 0-21.333333 8.533333-21.333333 21.333333s8.533333 21.333333 21.333333 21.333333h70.4l168.533334 539.733334c10.666667 34.133333 40.533333 57.6 76.8 57.6h352c34.133333 0 64-23.466667 76.8-57.6L932.266667 405.333333H1002.666667c12.8 0 21.333333-8.533333 21.333333-21.333333s-8.533333-21.333333-21.333333-21.333333zM640 618.666667c0-12.8-8.533333-21.333333-21.333333-21.333334H277.333333c-12.8 0-21.333333 8.533333-21.333333 21.333334s8.533333 21.333333 21.333333 21.333333h341.333334c12.8 0 21.333333-8.533333 21.333333-21.333333z m-192 192h234.666667c12.8 0 21.333333-8.533333 21.333333-21.333334s-8.533333-21.333333-21.333333-21.333333H448c-12.8 0-21.333333 8.533333-21.333333 21.333333s8.533333 21.333333 21.333333 21.333334z"  /></svg>