<?xml version="1.0" standalone="no"?><!DOCTYPE svg PUBLIC "-//W3C//DTD SVG 1.1//EN" "http://www.w3.org/Graphics/SVG/1.1/DTD/svg11.dtd"><svg class="icon" width="200px" height="200.00px" viewBox="0 0 1024 1024" version="1.1" xmlns="http://www.w3.org/2000/svg"><path fill="#333333" d="M819.658544 327.894935 542.141996 177.019693c-9.402137-5.126764-19.72218-7.668657-30.042223-7.668657-10.340509 0-20.682042 2.541893-30.063713 7.668657l-277.559527 150.937664c-20.911262 11.357675-33.982976 33.613562-33.982976 57.870012l0 292.644083c0 24.235984 13.071713 46.512337 34.004465 57.890478l277.538037 150.875243c9.381671 5.105275 19.72218 7.648191 30.042223 7.648191 10.340509 0 20.640086-2.541893 30.063713-7.648191l277.538037-150.937664c20.912285-11.399631 33.983999-33.655518 33.983999-57.891502L853.664032 385.785413C853.664032 361.528963 840.591295 339.273077 819.658544 327.894935M832.313771 678.408007c0 16.46295-8.756431 31.467689-22.850427 39.136346l-277.538037 150.937664c-6.109138 3.292999-12.94687 5.042853-19.848047 5.042853-6.901177 0-13.739932-1.749854-19.868513-5.042853L214.712665 717.606775c-14.134929-7.668657-22.870894-22.651906-22.870894-39.135322L191.841771 385.827369c0-16.46295 8.735965-31.466666 22.829961-39.114856l277.538037-150.937664c6.128581-3.333932 12.987802-5.084808 19.890003-5.084808 6.879688 0 13.71742 1.749854 19.826558 5.084808l277.538037 150.875243c14.093996 7.668657 22.850427 22.63144 22.850427 39.136346L832.314795 678.408007zM409.272849 382.680702c-3.585665-14.233166-14.260795-21.360494-24.454972-21.360494l-22.203698 0c0 0-21.307282 0.667196-21.307282 21.340027 0 20.693298 21.307282 21.360494 21.307282 21.360494l21.349237 0 37.735439 170.797991c4.003174 16.441461 17.117866 21.35947 27.103288 21.35947l169.750125 0c9.529027 0 16.887622-6.689353 21.766746-19.567661l42.218544-108.092857c2.210341-13.774725-6.7968-21.797445-20.973684-21.797445L437.710528 446.720228c-11.550057 0-16.449647-6.668886-20.014846-20.880563L409.272849 382.680702zM597.474208 617.516172c-23.580045 0-42.698474 19.129686-42.698474 42.699498 0 23.590278 19.11843 42.700521 42.698474 42.700521 23.600511 0 42.698474-19.110243 42.698474-42.700521C640.172683 636.646881 621.075743 617.516172 597.474208 617.516172M469.379808 617.516172c-23.580045 0-42.698474 19.129686-42.698474 42.699498 0 23.590278 19.11843 42.700521 42.698474 42.700521s42.698474-19.110243 42.698474-42.700521C512.078283 636.646881 492.959853 617.516172 469.379808 617.516172" /></svg>