<?xml version="1.0" standalone="no"?><!DOCTYPE svg PUBLIC "-//W3C//DTD SVG 1.1//EN" "http://www.w3.org/Graphics/SVG/1.1/DTD/svg11.dtd"><svg class="icon" width="200px" height="200.00px" viewBox="0 0 1024 1024" version="1.1" xmlns="http://www.w3.org/2000/svg"><path fill="#333333" d="M115.4 448.3h-20v-245c0-11 9-20 20-20h226c11 0 20 9 20 20v77h-20v-77h-226v245zM931.4 447.4h-20V340.3H514.7v-20h396.7c11 0 20 9 20 20v107.1zM203.7 450.2l-19.9-2.4c12.2-101.3 98.4-177.6 200.5-177.6 101.3 0 187.5 75.7 200.3 176l-19.8 2.5c-11.6-90.4-89.2-158.6-180.5-158.6-91.9 0.2-169.6 68.9-180.6 160.1zM235.9 960.3c-22.7 0-42.4-15.3-47.9-37.5-2.1-6.9-48-160.6-82.5-285.6-1.5-5.3 1.7-10.8 7-12.3s10.8 1.7 12.3 7c35.1 127 82 283.8 82.5 285.4l0.1 0.5c3.3 13.3 15 22.5 28.6 22.5H791.4c13.8 0 25.6-9.3 28.8-22.6l0.1-0.3L939.4 483c0.4-1.6 0.6-3.2 0.6-4.7 0-11-9-20-20-20H104c-1.7 0-3.3 0.2-5 0.6-10.5 2.7-16.9 13.3-14.5 23.8 1.2 3.1 6.2 16.7 10.5 32.2 1.5 5.3-1.7 10.8-7 12.3s-10.8-1.7-12.3-7c-4.5-16.2-10.1-30.8-10.1-30.9l-0.2-0.5-0.1-0.6c-5.5-21.4 7.4-43.2 28.8-48.7 3.2-0.8 6.6-1.3 9.9-1.3h816c22.1 0 40 18 40 40 0 3.3-0.4 6.5-1.2 9.7l-0.1 0.2-119.1 434.3c-5.4 22.3-25.1 37.8-48.1 37.8H236.4c-0.1 0.1-0.3 0.1-0.5 0.1zM101.4 575.3m-16 0a16 16 0 1 0 32 0 16 16 0 1 0-32 0ZM881.6 309c-1.7 0-3.4-0.2-5.2-0.7l-537-143.9c-5.2-1.4-9.5-4.7-12.1-9.3-2.4-4.2-3.2-9-2.3-13.7v-0.3l17.5-62.6c2.9-10.6 13.8-16.9 24.5-14.1h0.1c1.8 0.5 183.7 51.3 335.8 92.1 5.3 1.4 8.5 6.9 7.1 12.2-1.4 5.3-6.9 8.5-12.2 7.1-150.9-40.3-330.8-90.6-336-92v0.1l-16.8 60v1l-0.1 0.3L881.6 289v-0.1l17.2-61.2c-4.7-1-36-7.5-72-17.2-5.3-1.4-8.5-6.9-7.1-12.2 1.4-5.3 6.9-8.5 12.2-7.1 38.3 10.3 71.1 17 71.4 17l0.6 0.1c10.2 2.7 16.4 12.8 14.5 23v3l-1.1 1.1-16.5 58.8c-2.3 8.9-10.4 14.8-19.2 14.8zM766.4 186.3m-16 0a16 16 0 1 0 32 0 16 16 0 1 0-32 0ZM400.4 822.3h-230c-5.5 0-10-4.5-10-10s4.5-10 10-10h230c5.5 0 10 4.5 10 10s-4.5 10-10 10zM836.4 888.3h-392c-5.5 0-10-4.5-10-10s4.5-10 10-10h392c5.5 0 10 4.5 10 10s-4.5 10-10 10zM862.4 786.3h-218c-5.5 0-10-4.5-10-10s4.5-10 10-10h218c5.5 0 10 4.5 10 10s-4.5 10-10 10z" /></svg>