<?xml version="1.0" standalone="no"?><!DOCTYPE svg PUBLIC "-//W3C//DTD SVG 1.1//EN" "http://www.w3.org/Graphics/SVG/1.1/DTD/svg11.dtd"><svg class="icon" width="200px" height="200.00px" viewBox="0 0 1024 1024" version="1.1" xmlns="http://www.w3.org/2000/svg"><path fill="#333333" d="M200.014769 472.004923l55.670154-74.121846c11.382154-13.686154 19.062154-24.871385 37.376-24.871385h125.952c13.725538 0 24.910769 11.165538 24.910769 24.871385v248.654769c0 13.646769-11.106462 24.753231-24.75323 24.832a65.339077 65.339077 0 0 0-4.076308-15.064615c-7.463385-45.213538-47.438769-79.734154-95.665231-79.734154-53.464615 0-96.807385 42.436923-96.925538 94.838154h-16.64a24.950154 24.950154 0 0 1-24.91077-24.871385V522.24c-0.019692-23.571692 19.062154-50.235077 19.062154-50.235077z m160.925539 50.235077v-94.818462h-63.527385c-4.174769 0-9.984 5.592615-9.984 5.592616l-54.685538 69.060923c-4.844308 6.518154-10.102154 14.217846-10.102154 20.145231l138.299077 0.019692z m332.288 81.506462c38.222769 0 69.238154 30.385231 69.238154 67.879384 0 37.494154-30.995692 67.879385-69.238154 67.879385s-69.218462-30.385231-69.218462-67.879385c-0.019692-37.494154 30.976-67.879385 69.218462-67.879384z m-195.741539-325.789539h322.205539c14.237538 0 25.836308 11.421538 25.836307 25.442462v356.155077c0 14.020923-11.618462 25.442462-25.836307 25.442461h-30.503385c0.630154-4.371692 0.964923-8.841846 0.964923-13.390769 0-52.48-43.382154-95.015385-96.925538-95.015385-53.523692 0-96.925538 42.535385-96.925539 95.015385 0 4.548923 0.334769 9.019077 0.964923 13.390769h-99.800615c-14.237538 0-25.856-11.421538-25.856-25.442461V303.399385a25.737846 25.737846 0 0 1 25.875692-25.442462z m-178.097231 325.789539c38.222769 0 69.218462 30.385231 69.218462 67.879384 0 37.494154-30.995692 67.879385-69.218462 67.879385s-69.238154-30.385231-69.238153-67.879385c0.019692-37.494154 31.015385-67.879385 69.238153-67.879384zM513.240615 1010.865231c-276.893538 0-502.153846-225.260308-502.153846-502.153846s225.260308-502.153846 502.153846-502.153847 502.153846 225.260308 502.153847 502.153847c-0.019692 276.893538-225.28 502.153846-502.153847 502.153846z m0-945.230769c-244.322462 0-443.076923 198.754462-443.076923 443.076923s198.754462 443.076923 443.076923 443.076923c244.302769 0 443.076923-198.754462 443.076923-443.076923s-198.774154-443.076923-443.076923-443.076923zM1013.996308 966.340923c-10.830769 12.209231-30.503385 12.425846-43.933539 0.492308l-69.159384-61.380923c-13.430154-11.933538-15.556923-31.488-4.726154-43.697231 10.830769-12.209231 30.503385-12.425846 43.933538-0.492308l69.159385 61.380923c13.430154 11.933538 15.556923 31.488 4.726154 43.697231z" /></svg>