<?xml version="1.0" standalone="no"?><!DOCTYPE svg PUBLIC "-//W3C//DTD SVG 1.1//EN" "http://www.w3.org/Graphics/SVG/1.1/DTD/svg11.dtd"><svg class="icon" width="200px" height="176.55px" viewBox="0 0 1160 1024" version="1.1" xmlns="http://www.w3.org/2000/svg"><path fill="#333333" d="M1134.267733 179.985067c18.517333 27.3408 21.930667 61.149867 9.216 94.549333l-24.610133 56.610133a13682577.578667 13682577.578667 0 0 1-133.495467 307.473067c-28.16 59.136-60.791467 94.276267-98.7136 107.144533l-26.368 8.925867 26.845867 7.3728c54.749867 15.035733 93.627733 65.706667 93.627733 124.040533 0 70.8608-56.8832 128.477867-126.702933 128.477867-69.8368 0-126.702933-57.617067-126.702933-128.477867 0-51.933867 30.8224-98.218667 77.192533-118.272l37.870933-16.366933H376.7296l37.853867 16.384c46.370133 20.036267 77.192533 66.321067 77.192533 118.254933 0 70.8608-56.866133 128.477867-126.702933 128.477867-69.819733 0-126.702933-57.617067-126.702934-128.477867 0-58.368 38.912-109.056 93.713067-124.074666l26.692267-7.287467-26.1632-8.994133c-40.686933-13.994667-72.192-53.230933-89.975467-113.954134l-12.868267-56.576a5514511.018667 5514511.018667 0 0 1-70.126933-307.882666L143.36 176.384a36.0448 36.0448 0 0 1-1.6384-8.686933c-0.4608-3.0208-0.4608-3.0208-1.877333-10.871467l-3.857067-21.589333L130.423467 104.106667l-3.720534-26.624-1.024-7.338667H39.287467A30.208 30.208 0 0 1 9.3184 39.765333c0-16.759467 13.482667-30.3616 29.986133-30.3616h112.401067c14.7968 0 27.5968 11.229867 29.678933 26.112l8.2944 59.2896 6.075734 33.962667 1.262933 7.031467 854.852267 0.085333c32.9216 0 63.709867 16.469333 82.397866 44.0832zM787.3024 886.101333c0 37.3248 29.9008 67.754667 66.747733 67.754667a65.877333 65.877333 0 0 0 47.1552-19.848533 67.874133 67.874133 0 0 0 19.592534-47.906134c0-37.341867-29.9008-67.771733-66.730667-67.771733-36.864 0-66.7648 30.429867-66.7648 67.754667z m-422.229333-67.771733c-36.846933 0-66.730667 30.429867-66.730667 67.754667 0 37.358933 29.883733 67.771733 66.730667 67.771733 36.864 0 66.747733-30.4128 66.747733-67.754667s-29.9008-67.771733-66.730667-67.771733z m723.2512-567.637333c4.795733-13.312 3.584-25.924267-3.515734-36.386134a40.277333 40.277333 0 0 0-32.938666-17.681066H270.933333l-52.821333-0.068267-10.222933-0.017067 10.581333 59.050667 82.432 361.7792c15.496533 51.797333 39.765333 73.386667 66.594133 73.386667h483.925334c29.184 0 54.869333-26.077867 79.650133-77.892267l157.252267-362.1888z m-217.0368 26.282666c7.953067 0 15.547733 3.874133 20.2752 10.376534 8.192 11.281067 5.802667 27.306667-5.3248 35.6352L555.076267 570.760533a24.9856 24.9856 0 0 1-34.048-3.925333l-112.298667-132.7104a25.8048 25.8048 0 0 1 2.7136-35.9424 24.9856 24.9856 0 0 1 35.498667 2.747733l91.869866 108.5952 5.188267 6.144L856.354133 281.941333c4.369067-3.2768 9.506133-4.983467 14.933334-4.983466z" /></svg>