<?xml version="1.0" standalone="no"?><!DOCTYPE svg PUBLIC "-//W3C//DTD SVG 1.1//EN" "http://www.w3.org/Graphics/SVG/1.1/DTD/svg11.dtd"><svg class="icon" width="200px" height="200.00px" viewBox="0 0 1024 1024" version="1.1" xmlns="http://www.w3.org/2000/svg"><path fill="#333333" d="M827.36 923.65H189.85a25 25 0 0 1-25-25V475.47a25 25 0 0 1 25-25h637.51a25 25 0 0 1 25 25v423.18a25 25 0 0 1-25 25z m-612.51-50h587.51V500.47H214.85z"  /><path fill="#333333" d="M897.13 497.13h-777a25 25 0 0 1-25-25V332.49a25 25 0 0 1 25-25h777a25 25 0 0 1 25 25v139.64a25 25 0 0 1-25 25z m-752-50h727v-89.64h-727z"  /><path fill="#333333" d="M458.61 889.4a25 25 0 0 1-25-25V354.86a25 25 0 0 1 50 0V864.4a25 25 0 0 1-25 25zM558.61 889.4a25 25 0 0 1-25-25V354.86a25 25 0 0 1 50 0V864.4a25 25 0 0 1-25 25z"  /><path fill="#333333" d="M508.83 365.21c-24.3 0-39.11-4.74-47.62-15.09a29.32 29.32 0 0 1-3.69-31.6c4-8.42 2.63-30.2-10-58.11-12.8-28.3-32.83-53.87-53.57-68.4-33.76-23.65-54.46-9.24-67.09 3.66-13.12 13.39-13.39 23.92-12.44 30.68 2.18 15.6 15.83 34.91 38.42 54.39a267.25 267.25 0 0 0 37.28 26.86 25 25 0 0 1-24.74 43.45 318 318 0 0 1-45.19-32.44c-32.71-28.2-51.31-56.91-55.29-85.33-2.56-18.29-0.08-45.74 26.24-72.6 19.69-20.11 43.07-30.94 67.59-31.31 21.37-0.36 42.89 7 63.9 21.68 21.44 15 41.43 37.33 57.06 63.28 16.54-39.65 40.2-71.46 69.78-93.39C585.43 94.28 628.65 83.82 668 92.25c27.63 5.91 51.2 20.83 66.38 42 16.62 23.14 22.32 51.75 16.56 82.6-6.74 36.19-28.44 67.46-64.49 93-34.16 24.16-73.68 37.56-100.83 44.54-24.41 6.28-49.42 10.1-70.4 10.75-2.22 0.03-4.33 0.07-6.39 0.07z m-1.36-80.58c0.37 2.07 0.7 4.12 1 6.13a109.88 109.88 0 0 1 0.73 24.43 239.28 239.28 0 0 0 42.23-4.43c33.65-6.25 66.17-17.77 91.57-32.44 33.95-19.6 53.74-43.36 58.82-70.63 3.2-17.19 0.43-32.51-8-44.29-7.92-11.06-20.77-19-36.2-22.26-25.35-5.42-53.9 1.86-78.33 20-31.29 23.14-54.29 62.3-66.63 113.23a24.89 24.89 0 0 1-5.19 10.26z"  /></svg>