<?xml version="1.0" standalone="no"?><!DOCTYPE svg PUBLIC "-//W3C//DTD SVG 1.1//EN" "http://www.w3.org/Graphics/SVG/1.1/DTD/svg11.dtd"><svg class="icon" width="200px" height="200.00px" viewBox="0 0 1024 1024" version="1.1" xmlns="http://www.w3.org/2000/svg"><path fill="#333333" d="M635.742188 280.214844c29.804688 25.839844 44.726563 61.367188 44.726563 106.582031 0 36.269531-9.453125 66.582031-28.320313 90.9375-6.464844 7.949219-27.324219 27.324219-62.597656 58.125-13.925781 11.445313-24.355469 24.355469-31.308594 38.75-7.949219 14.414063-11.914063 30.820313-11.914063 49.179688l0 12.675781-79.765625 0 0-12.675781c0-28.808594 4.960938-52.421875 14.902344-70.800781 9.433594-19.863281 37.519531-50.683594 84.21875-92.421875l12.675781-14.160156c13.90625-17.890625 20.859375-36.015625 20.859375-54.414063 0-25.351563-7.207031-45.703125-21.601563-61.113281-14.902344-14.902344-36.035156-22.363281-63.359375-22.363281-33.808594 0-58.144531 10.683594-73.046875 32.050781-13.417969 17.890625-20.117188 43.222656-20.117188 76.035156l-78.261719 0c0-54.160156 15.664063-96.894531 46.953125-128.183594 31.308594-31.796875 74.53125-47.695313 129.6875-47.695313C567.65625 240.703125 606.40625 253.886719 635.742188 280.214844zM545.546875 691.621094c10.429688 9.453125 15.664063 22.109375 15.664063 38.007813 0 14.902344-5.46875 27.832031-16.40625 38.75-10.9375 9.941406-23.847656 14.902344-38.75 14.902344-15.410156 0-28.320313-5.214844-38.75-15.664063-10.429688-10.429688-15.664063-23.105469-15.664063-38.007813 0-15.898438 5.214844-28.574219 15.664063-38.007813 9.941406-9.921875 22.851563-14.902344 38.75-14.902344C522.441406 676.71875 535.605469 681.699219 545.546875 691.621094zM511.992188 68.007813c-245.214844 0-444.003906 198.789063-444.003906 444.003906s198.789063 444.003906 444.003906 444.003906S955.996094 757.226563 955.996094 511.992188 757.226563 68.007813 511.992188 68.007813zM511.992188 894.472656c-211.230469 0-382.460938-171.230469-382.460938-382.460938S300.78125 129.53125 511.992188 129.53125 894.472656 300.78125 894.472656 511.992188 723.222656 894.472656 511.992188 894.472656z" /></svg>